<svg xmlns="http://www.w3.org/2000/svg" viewBox="0 0 64 64">
  <defs>
    <linearGradient id="g" x1="0" y1="0" x2="1" y2="1">
      <stop offset="0%" stop-color="#ff1f43"/>
      <stop offset="100%" stop-color="#ff6a00"/>
    </linearGradient>
  </defs>
  <rect width="64" height="64" rx="14" fill="#0d0d0d"/>
  <path fill="url(#g)" d="M18 46V18h10.8c3.7 0 6.6.8 8.7 2.3 2.1 1.5 3.1 3.6 3.1 6.2 0 2-.5 3.7-1.6 5.1-1.1 1.4-2.5 2.3-4.3 2.8l7.8 11.6h-7l-6.9-10.4h-4.1V46H18zm8.2-16.8h2.4c3.7 0 5.5-1.3 5.5-3.9 0-2.5-1.8-3.8-5.5-3.8h-2.4v7.7z"/>
</svg>
